<svg width="24" height="25" viewBox="0 0 24 25" fill="none" xmlns="http://www.w3.org/2000/svg">
<g id="Lock 1">
<path id="Rectangle 12" d="M16 9.20752V6.20752C16 4.55067 14.6569 3.20752 13 3.20752H11C9.34315 3.20752 8 4.55067 8 6.20752V9.20752M16 9.20752H8M16 9.20752C17.6569 9.20752 19 10.5507 19 12.2075V18.2075C19 19.8644 17.6569 21.2075 16 21.2075H8C6.34315 21.2075 5 19.8644 5 18.2075V12.2075C5 10.5507 6.34315 9.20752 8 9.20752M12 14.2075V17.2075M13 14.2075C13 14.7598 12.5523 15.2075 12 15.2075C11.4477 15.2075 11 14.7598 11 14.2075C11 13.6552 11.4477 13.2075 12 13.2075C12.5523 13.2075 13 13.6552 13 14.2075Z" stroke="#969696" stroke-width="2" stroke-linecap="round" stroke-linejoin="round"/>
</g>
</svg>
