<svg width="228" height="73" viewBox="0 0 228 73" fill="none" xmlns="http://www.w3.org/2000/svg">
<g id="Group 8825">
<path id="Vector" d="M217.139 59.7315V19.684H226.486V59.7315H217.139ZM221.698 11.1729C219.824 11.1729 218.355 10.7169 217.291 9.80505C216.277 8.84248 215.771 7.49996 215.771 5.77749C215.771 4.15633 216.303 2.83915 217.367 1.82593C218.431 0.812703 219.874 0.306091 221.698 0.306091C223.623 0.306091 225.093 0.787371 226.106 1.74993C227.17 2.66183 227.702 4.00435 227.702 5.77749C227.702 7.34798 227.17 8.63984 226.106 9.65306C225.042 10.6663 223.573 11.1729 221.698 11.1729Z" fill="#F2F2F2"/>
<path id="Vector_2" d="M195.669 59.7315V3.49774H205.092V59.7315H195.669Z" fill="#F2F2F2"/>
<path id="Vector_3" d="M174.394 59.7315V19.684H183.741V59.7315H174.394ZM178.953 11.1729C177.079 11.1729 175.609 10.7169 174.546 9.80505C173.532 8.84248 173.026 7.49996 173.026 5.77749C173.026 4.15633 173.558 2.83915 174.622 1.82593C175.685 0.812703 177.129 0.306091 178.953 0.306091C180.878 0.306091 182.347 0.787371 183.361 1.74993C184.424 2.66183 184.956 4.00435 184.956 5.77749C184.956 7.34798 184.424 8.63984 183.361 9.65306C182.297 10.6663 180.827 11.1729 178.953 11.1729Z" fill="#F2F2F2"/>
<path id="Vector_4" d="M152.923 59.7315V3.49774H162.346V59.7315H152.923Z" fill="#F2F2F2"/>
<path id="Vector_5" d="M79.6704 60.4914C75.4655 60.4914 71.742 59.6049 68.4996 57.8317C65.308 56.0586 62.8003 53.6522 60.9765 50.6125C59.2033 47.5222 58.3168 44.0012 58.3168 40.0497C58.3168 36.9087 58.8234 34.0463 59.8366 31.4626C60.8498 28.8789 62.243 26.6498 64.0161 24.7754C65.8399 22.8502 67.993 21.3811 70.4754 20.3679C73.0085 19.304 75.7695 18.772 78.7585 18.772C81.3929 18.772 83.85 19.2786 86.1297 20.2919C88.4094 21.3051 90.3852 22.6983 92.057 24.4714C93.7289 26.1939 94.9954 28.271 95.8566 30.7027C96.7685 33.0838 97.1991 35.6928 97.1485 38.5299L97.0725 41.7975H64.6241L62.8763 35.4142H89.2454L88.0295 36.7061V35.0342C87.8775 33.4637 87.3709 32.0959 86.5097 30.9307C85.6484 29.7148 84.5339 28.7776 83.166 28.119C81.8488 27.4097 80.3797 27.0551 78.7585 27.0551C76.2761 27.0551 74.1737 27.5364 72.4512 28.499C70.7794 29.4615 69.5129 30.8547 68.6516 32.6785C67.7904 34.4516 67.3598 36.6807 67.3598 39.3658C67.3598 41.9495 67.8917 44.2039 68.9556 46.129C70.0701 48.0541 71.6153 49.5486 73.5911 50.6125C75.6175 51.6257 77.9733 52.1323 80.6583 52.1323C82.5328 52.1323 84.2552 51.8284 85.8257 51.2204C87.3962 50.6125 89.0934 49.5233 90.9172 47.9528L95.5527 54.4121C94.1848 55.6786 92.6143 56.7678 90.8412 57.6797C89.1187 58.541 87.2949 59.2249 85.3698 59.7315C83.4447 60.2381 81.5449 60.4914 79.6704 60.4914Z" fill="#F2F2F2"/>
<path id="Vector_6" d="M28.1114 60.4915C24.1092 60.4915 20.4109 59.8075 17.0166 58.4397C13.6223 57.0212 10.6587 55.0707 8.1256 52.5883C5.6432 50.106 3.71808 47.2183 2.35023 43.9253C0.982385 40.5817 0.298462 36.9594 0.298462 33.0585C0.298462 29.2083 0.982385 25.6367 2.35023 22.3437C3.76874 19.0001 5.74452 16.1124 8.27758 13.6807C10.8106 11.1983 13.7743 9.27314 17.1686 7.90529C20.6136 6.53744 24.3118 5.85352 28.2634 5.85352C31.0497 5.85352 33.7348 6.23347 36.3185 6.99339C38.9022 7.75331 41.2326 8.81719 43.3097 10.185C45.3868 11.5529 47.1093 13.098 48.4771 14.8205L42.2458 21.3558C40.8273 19.988 39.3581 18.8481 37.8383 17.9362C36.3691 17.0243 34.824 16.315 33.2028 15.8084C31.5817 15.3018 29.9099 15.0485 28.1874 15.0485C25.6543 15.0485 23.2986 15.5044 21.1202 16.4163C18.9924 17.3282 17.1179 18.5948 15.4968 20.2159C13.9263 21.8371 12.6851 23.7369 11.7732 25.9153C10.8613 28.0937 10.4053 30.4748 10.4053 33.0585C10.4053 35.5409 10.8613 37.8966 11.7732 40.1257C12.7358 42.3548 14.0529 44.3053 15.7248 45.9771C17.3966 47.6489 19.3217 48.9661 21.5001 49.9286C23.7292 50.8405 26.0849 51.2965 28.5673 51.2965C30.4418 51.2965 32.1896 51.0178 33.8108 50.4606C35.4319 49.9033 36.8757 49.1434 38.1423 48.1808C39.4088 47.1676 40.3714 46.0024 41.03 44.6852C41.7392 43.368 42.0938 41.9495 42.0938 40.4297V38.7579L43.4617 40.3537H27.7314V31.5387H51.8208C51.9221 32.0959 51.9981 32.7292 52.0487 33.4385C52.0994 34.0971 52.1247 34.7557 52.1247 35.4142C52.1754 36.0222 52.2007 36.5541 52.2007 37.0101C52.2007 40.5057 51.5928 43.6973 50.3769 46.585C49.1611 49.422 47.4386 51.8791 45.2095 53.9562C43.0311 56.0333 40.4727 57.6545 37.5343 58.8197C34.6467 59.9342 31.5057 60.4915 28.1114 60.4915Z" fill="#F2F2F2"/>
<path id="Exclude" fill-rule="evenodd" clip-rule="evenodd" d="M127.718 71.2644C137.425 63.4619 147.414 50.6605 147.464 38.0723C147.577 9.87161 102.704 9.03046 102.74 37.9643C103.008 49.1576 112.01 63.4073 122.314 71.3532C123.917 72.5896 126.14 72.5329 127.718 71.2644ZM125.191 48.2841C131.119 48.2841 135.925 43.4787 135.925 37.5509C135.925 31.6231 131.119 26.8177 125.191 26.8177C119.264 26.8177 114.458 31.6231 114.458 37.5509C114.458 43.4787 119.264 48.2841 125.191 48.2841Z" fill="#F2F2F2"/>
</g>
</svg>
